<svg width="336" height="53" viewBox="0 0 336 53" fill="none" xmlns="http://www.w3.org/2000/svg">
<path d="M41.3442 44.1064L31.5784 52.9277H4.34827V30.513L0 26.6085L4.34827 22.7763V0H31.5784L41.3442 8.82128V44.1064ZM33.7882 40.4911V12.5089L28.2994 7.7367H12.0468V45.191H28.2994L33.7882 40.4911ZM100.766 53H92.7821L87.8635 39.7681H66.4786L61.5601 53H53.5764L61.8452 30.5853L58.2098 26.6808L64.554 23.3547L73.1792 0H81.1629L100.766 53ZM85.0122 32.0314L77.1711 10.3397L69.3299 32.0314H85.0122V32.0314ZM130.676 26.6808L126.328 30.5853V53H118.701V30.5853L114.352 26.6808L118.701 22.8486V0H126.328V22.8486L130.676 26.6808ZM220.792 53H189.214V30.513L184.866 26.6808L189.214 22.7763V0H196.841V45.2633H220.792V53ZM281.64 26.6808L277.291 30.513V44.1064L267.525 53H248.992L239.226 44.1064V30.513L234.878 26.6808L239.226 22.7763V0H246.853V40.4188L252.271 45.2633H264.246L269.664 40.4188V0H277.291V22.7763L281.64 26.6808ZM336 53H327.303L314.615 32.9714L301.927 53H293.23L310.338 26.5362L293.23 0H301.927L314.615 20.0286L327.303 0H336L318.892 26.5362L336 53Z" fill="#AB9764"/>
<path d="M31.386 52.4277H4.84827V30.513V30.2899L4.68233 30.1409L0.752259 26.6119L4.67886 23.1514L4.84827 23.0021V22.7763V0.5H31.386L40.8442 9.04342V43.8843L31.386 52.4277ZM34.1134 40.8709L34.2882 40.7213V40.4911V12.5089V12.281L34.1162 12.1315L28.6275 7.35937L28.4864 7.2367H28.2994H12.0468H11.5468V7.7367V45.191V45.691H12.0468H28.2994H28.4842L28.6246 45.5708L34.1134 40.8709ZM61.2125 52.5H54.2938L62.3143 30.7583L62.4208 30.4697L62.2112 30.2445L59.0221 26.8194L64.7861 23.7975L64.9564 23.7083L65.023 23.5279L73.5276 0.5H80.8148L100.048 52.5H93.1296L88.3322 39.5939L88.2111 39.2681H87.8635H66.4786H66.131L66.0099 39.5939L61.2125 52.5ZM77.6413 10.1697L77.1711 8.86891L76.7009 10.1697L68.8597 31.8614L68.6175 32.5314H69.3299H85.0122V32.0314L85.4824 31.8614L77.6413 10.1697ZM129.924 26.6843L125.994 30.2132L125.828 30.3622V30.5853V52.5H119.201V30.5853V30.3622L119.035 30.2132L115.105 26.6843L119.031 23.2237L119.201 23.0744V22.8486V0.5H125.828V22.8486V23.0744L125.997 23.2237L129.924 26.6843ZM189.544 30.1378L185.618 26.6773L189.548 23.1483L189.714 22.9993V22.7763V0.5H196.341V45.2633V45.7633H196.841H220.292V52.5H189.714V30.513V30.2871L189.544 30.1378ZM280.887 26.6773L276.961 30.1378L276.791 30.2871V30.513V43.8855L267.332 52.5H249.185L239.726 43.8855V30.513V30.2871L239.557 30.1378L235.63 26.6773L239.56 23.1483L239.726 22.9993V22.7763V0.5H246.353V40.4188V40.6425L246.52 40.7915L251.938 45.636L252.08 45.7633H252.271H264.246H264.437L264.58 45.636L269.997 40.7915L270.164 40.6425V40.4188V0.5H276.791V22.7763V22.9993L276.957 23.1483L280.887 26.6773ZM314.193 32.7038L301.652 52.5H294.149L310.758 26.8076L310.933 26.5365L310.758 26.2652L294.147 0.5H301.652L314.193 20.2962L314.615 20.9629L315.037 20.2962L327.579 0.5H335.083L318.472 26.2652L318.297 26.5365L318.472 26.8076L335.081 52.5H327.579L315.037 32.7038L314.615 32.037L314.193 32.7038Z" stroke="black" stroke-opacity="0.7"/>
</svg>
